<svg xmlns="http://www.w3.org/2000/svg" width="1200" height="760" viewBox="0 0 1200 760">
  <defs>
    <style>
      .label { font-family: Arial, sans-serif; fill: #f6fbff; font-size: 28px; font-weight: 700; }
      .small { font-family: Arial, sans-serif; fill: #e5f6ff; font-size: 20px; font-weight: 600; }
      .tiny { font-family: Arial, sans-serif; fill: #d2ebf8; font-size: 15px; }
    </style>
  </defs>
  <rect width="1200" height="760" fill="#061824"/>
  <rect x="90" y="90" width="900" height="560" fill="#0b4f7a" stroke="#9eeeff" stroke-width="3"/>
  <line x1="90.00" y1="650.00" x2="90.00" y2="658.00" stroke="#d2ebf8" stroke-width="2"/><text x="80.00" y="680.00" class="tiny">0</text><line x1="204.49" y1="650.00" x2="204.49" y2="658.00" stroke="#d2ebf8" stroke-width="2"/><text x="194.49" y="680.00" class="tiny">5</text><line x1="204.49" y1="90.00" x2="204.49" y2="650.00" stroke="rgba(255,255,255,0.13)" stroke-width="1"/><line x1="318.97" y1="650.00" x2="318.97" y2="658.00" stroke="#d2ebf8" stroke-width="2"/><text x="308.97" y="680.00" class="tiny">10</text><line x1="318.97" y1="90.00" x2="318.97" y2="650.00" stroke="rgba(255,255,255,0.13)" stroke-width="1"/><line x1="433.46" y1="650.00" x2="433.46" y2="658.00" stroke="#d2ebf8" stroke-width="2"/><text x="423.46" y="680.00" class="tiny">15</text><line x1="433.46" y1="90.00" x2="433.46" y2="650.00" stroke="rgba(255,255,255,0.13)" stroke-width="1"/><line x1="547.95" y1="650.00" x2="547.95" y2="658.00" stroke="#d2ebf8" stroke-width="2"/><text x="537.95" y="680.00" class="tiny">20</text><line x1="547.95" y1="90.00" x2="547.95" y2="650.00" stroke="rgba(255,255,255,0.13)" stroke-width="1"/><line x1="662.44" y1="650.00" x2="662.44" y2="658.00" stroke="#d2ebf8" stroke-width="2"/><text x="652.44" y="680.00" class="tiny">25</text><line x1="662.44" y1="90.00" x2="662.44" y2="650.00" stroke="rgba(255,255,255,0.13)" stroke-width="1"/><line x1="776.92" y1="650.00" x2="776.92" y2="658.00" stroke="#d2ebf8" stroke-width="2"/><text x="766.92" y="680.00" class="tiny">30</text><line x1="776.92" y1="90.00" x2="776.92" y2="650.00" stroke="rgba(255,255,255,0.13)" stroke-width="1"/><line x1="891.41" y1="650.00" x2="891.41" y2="658.00" stroke="#d2ebf8" stroke-width="2"/><text x="881.41" y="680.00" class="tiny">35</text><line x1="891.41" y1="90.00" x2="891.41" y2="650.00" stroke="rgba(255,255,255,0.13)" stroke-width="1"/>
  <line x1="90" y1="90.00" x2="990" y2="90.00" stroke="rgba(255,255,255,0.35)" stroke-width="2" stroke-dasharray="8 8"/><text x="102" y="82.00" class="tiny">0 m, 20 C</text><line x1="90" y1="183.33" x2="990" y2="183.33" stroke="rgba(255,255,255,0.35)" stroke-width="2" stroke-dasharray="8 8"/><text x="102" y="175.33" class="tiny">5 m, 18 C</text><line x1="90" y1="276.67" x2="990" y2="276.67" stroke="rgba(255,255,255,0.35)" stroke-width="2" stroke-dasharray="8 8"/><text x="102" y="268.67" class="tiny">10 m, 15 C</text><line x1="90" y1="463.33" x2="990" y2="463.33" stroke="rgba(255,255,255,0.35)" stroke-width="2" stroke-dasharray="8 8"/><text x="102" y="455.33" class="tiny">20 m, 10 C</text><line x1="90" y1="650.00" x2="990" y2="650.00" stroke="rgba(255,255,255,0.35)" stroke-width="2" stroke-dasharray="8 8"/><text x="102" y="642.00" class="tiny">30 m, 8 C</text>
  <polyline points="90.00,650.00 94.96,647.67 99.91,645.33 104.87,643.00 109.83,640.67 114.79,638.33 119.74,636.00 124.70,633.67 129.66,631.33 134.62,629.00 139.57,626.67 144.53,624.33 149.49,622.00 154.45,619.67 159.40,617.33 164.36,615.00 169.32,612.67 174.28,610.33 179.23,608.00 184.19,605.67 189.15,603.33 194.11,601.00 199.06,598.67 204.02,596.33 208.98,594.00 213.94,591.67 218.89,589.33 223.85,587.00 228.81,584.67 233.77,582.33 238.72,580.00 243.68,577.67 248.64,575.33 253.60,573.00 258.55,570.67 263.51,568.33 268.47,566.00 273.43,563.67 278.38,561.33 283.34,559.00 288.30,556.67 293.25,554.33 298.21,552.00 303.17,549.67 308.13,547.33 313.08,545.00 318.04,542.67 323.00,540.33 327.96,538.00 332.91,535.67 337.87,533.33 342.83,531.00 347.79,528.67 352.74,526.33 357.70,524.00 362.66,521.67 367.62,519.33 372.57,517.00 377.53,514.67 382.49,512.33 387.45,510.00 392.40,507.67 397.36,505.33 402.32,503.00 407.28,500.67 412.23,498.33 417.19,496.00 422.15,493.67 427.11,491.33 432.06,489.00 437.02,486.67 441.98,484.33 446.94,482.00 451.89,479.67 456.85,477.33 461.81,475.00 466.77,472.67 471.72,470.33 476.68,468.00 481.64,465.67 486.59,463.33 491.55,461.00 496.51,458.67 501.47,456.33 506.42,454.00 511.38,451.67 516.34,449.33 521.30,447.00 526.25,444.67 531.21,442.33 536.17,440.00 541.13,437.67 546.08,435.33 551.04,433.00 556.00,430.67 560.96,428.33 565.91,426.00 570.87,423.67 575.83,421.33 580.79,419.00 585.74,416.67 590.70,414.33 595.66,412.00 600.62,409.67 605.57,407.33 610.53,405.00 615.49,402.67 620.45,400.33 625.40,398.00 630.36,395.67 635.32,393.33 640.28,391.00 645.23,388.67 650.19,386.33 655.15,384.00 660.10,381.67 665.06,379.33 670.02,377.00 674.98,374.67 679.93,372.33 684.89,370.00 689.85,367.67 694.81,365.33 699.76,363.00 704.72,360.67 709.68,358.33 714.64,356.00 719.59,353.67 724.55,351.33 729.51,349.00 734.47,346.67 739.42,344.33 744.38,342.00 749.34,339.67 754.30,337.33 759.25,335.00 764.21,332.67 769.17,330.33 774.13,328.00 779.08,325.67 784.04,323.33 789.00,321.00 793.96,318.67 798.91,316.33 803.87,314.00 808.83,311.67 813.79,309.33 818.74,307.00 823.70,304.67 828.66,302.33 833.62,300.00 838.57,297.67 843.53,295.33 848.49,293.00 853.44,290.67 858.40,288.33 863.36,286.00 868.32,283.67 873.27,281.33 878.23,279.00 883.19,276.67 888.15,274.33 893.10,272.00 898.06,269.67 903.02,267.33 907.98,265.00 912.93,262.67 917.89,260.33 922.85,258.00 927.81,255.67 932.76,253.33 937.72,251.00 942.68,248.67 947.64,246.33 952.59,244.00 957.55,241.67 962.51,239.33 967.47,237.00 972.42,234.67 977.38,232.33 982.34,230.00 982.34,230.00" fill="none" stroke="#ffffff" stroke-width="4" stroke-dasharray="14 10" opacity="0.75"/>
  <polyline points="90.00,650.00 94.96,647.67 99.92,645.33 104.87,643.00 109.83,640.67 114.79,638.34 119.75,636.01 124.71,633.68 129.67,631.35 134.63,629.02 139.59,626.69 144.55,624.36 149.51,622.03 154.47,619.71 159.44,617.38 164.40,615.05 169.36,612.73 174.32,610.40 179.29,608.08 184.25,605.75 189.22,603.43 194.18,601.10 199.14,598.78 204.11,596.46 209.07,594.14 214.04,591.82 219.01,589.49 223.97,587.17 228.94,584.85 233.91,582.53 238.87,580.22 243.84,577.90 248.81,575.58 253.78,573.26 258.75,570.94 263.72,568.63 268.69,566.31 273.66,564.00 278.63,561.68 283.60,559.37 288.57,557.05 293.54,554.74 298.51,552.42 303.48,550.11 308.46,547.80 313.43,545.49 318.40,543.18 323.38,540.87 328.35,538.56 333.32,536.25 338.30,533.94 343.27,531.63 348.25,529.32 353.22,527.01 358.20,524.70 363.17,522.40 368.15,520.09 373.13,517.79 378.10,515.48 383.08,513.17 388.06,510.87 393.04,508.57 398.02,506.26 402.99,503.96 407.97,501.66 412.95,499.36 417.93,497.05 422.91,494.75 427.89,492.45 432.87,490.15 437.85,487.85 442.84,485.55 447.82,483.25 452.80,480.96 457.78,478.66 462.76,476.36 467.75,474.06 472.73,471.77 477.71,469.47 482.70,467.18 487.68,464.88 492.67,462.59 497.65,460.29 502.64,458.00 507.63,455.71 512.61,453.42 517.60,451.13 522.59,448.84 527.58,446.56 532.57,444.27 537.56,441.99 542.56,439.70 547.55,437.42 552.54,435.14 557.54,432.86 562.54,430.58 567.53,428.31 572.53,426.03 577.53,423.76 582.53,421.48 587.53,419.21 592.53,416.94 597.53,414.67 602.53,412.40 607.53,410.13 612.54,407.87 617.54,405.60 622.55,403.34 627.55,401.07 632.56,398.81 637.57,396.55 642.58,394.29 647.59,392.03 652.60,389.78 657.61,387.52 662.62,385.27 667.63,383.01 672.65,380.76 677.66,378.51 682.68,376.26 687.69,374.01 692.71,371.76 697.72,369.51 702.74,367.27 707.76,365.02 712.78,362.78 717.80,360.54 722.82,358.30 727.84,356.06 732.87,353.82 737.89,351.58 742.91,349.34 747.94,347.11 752.96,344.87 757.99,342.64 763.02,340.41 768.04,338.18 773.07,335.95 778.10,333.72 783.13,331.49 788.16,329.26 793.19,327.04 798.23,324.81 803.26,322.59 808.29,320.37 813.33,318.15 818.36,315.93 823.40,313.71 828.44,311.49 833.47,309.27 838.51,307.06 843.55,304.84 848.59,302.63 853.63,300.42 858.67,298.21 863.71,296.00 868.75,293.79 873.80,291.58 878.84,289.37 883.89,287.17 888.93,284.96 893.98,282.76 899.02,280.55 904.07,278.35 909.12,276.15 914.17,273.95 919.22,271.76 924.27,269.56 929.32,267.36 934.37,265.17 939.42,262.98 944.48,260.78 949.53,258.59 954.59,256.41 959.64,254.22 964.70,252.03 969.76,249.85 974.82,247.66 979.88,245.48 984.94,243.30 990.00,241.12" fill="none" stroke="#00f0ff" stroke-width="7" stroke-linecap="round" stroke-linejoin="round"/>
  <circle cx="90.00" cy="650.00" r="5" fill="#0b2738" stroke="#d7f7ff" stroke-width="2"/>
  <circle cx="982.34" cy="230.00" r="5" fill="#ff5bd7" stroke="#ffd0f4" stroke-width="2"/>
  <circle cx="990.00" cy="241.12" r="5" fill="#ffdd6e" stroke="#fff5c0" stroke-width="2"/>
  <text x="90" y="58" class="label">2D Sonar Refraction Simulation</text>
  <text x="1020" y="130" class="small">Launch</text>
  <text x="1020" y="160" class="tiny">start depth: 30 m</text>
  <text x="1020" y="184" class="tiny">angle: 30 deg</text>
  <text x="1020" y="208" class="tiny">max x: 39.3 m</text>
  <text x="1020" y="240" class="small">Legend</text>
  <line x1="1020" y1="275" x2="1090" y2="275" stroke="#ffffff" stroke-width="4" stroke-dasharray="14 10"/>
  <text x="1020" y="305" class="tiny">unrefracted line</text>
  <line x1="1020" y1="345" x2="1090" y2="345" stroke="#00f0ff" stroke-width="7"/>
  <text x="1020" y="375" class="tiny">actual refracted beam</text>
  <circle cx="1032" cy="408" r="8" fill="#ff5bd7" stroke="#ffd0f4" stroke-width="3"/>
  <text x="1050" y="414" class="tiny">apparent point</text>
  <text x="1020" y="430" class="small">Endpoint</text>
  <text x="1020" y="460" class="tiny">apparent x=38.97 m</text>
  <text x="1020" y="484" class="tiny">apparent y=-7.50 m</text>
  <text x="1020" y="520" class="tiny">actual x=39.31 m</text>
  <text x="1020" y="544" class="tiny">actual y=-8.10 m</text>
  <text x="1020" y="590" class="small">Difference</text>
  <text x="1020" y="620" class="tiny">actual - apparent</text>
  <text x="1020" y="644" class="tiny">dx=+0.335 m</text>
  <text x="1020" y="668" class="tiny">dy=-0.596 m</text>
  <text x="1020" y="692" class="tiny">ddepth=+0.596 m</text>
  <text x="477.00" y="705.00" class="small">Horizontal distance x [m]</text>
  <text x="90" y="738" class="tiny">Coordinates: x is horizontal range; y is Unity-style vertical position, with water surface at y=0 and depth positive downward.</text>
</svg>
